<?xml version="1.0" encoding="UTF-8"?>
<svg width="21px" height="21px" viewBox="0 0 21 21" version="1.1" xmlns="http://www.w3.org/2000/svg" xmlns:xlink="http://www.w3.org/1999/xlink">
    <!-- Generator: Sketch 61 (89581) - https://sketch.com -->
    <title>Social / Social Media / instagram</title>
    <desc>Created with Sketch.</desc>
    <defs>
        <path d="M12,2.1 C9.3,2.1 8.9,2.1 7.9,2.2 C6.8,2.2 6.1,2.4 5.5,2.7 C4.8,2.9 4.2,3.3 3.7,3.8 C3.1,4.4 2.8,4.9 2.5,5.6 C2.3,6.2 2.1,7 2.1,8 C2,9.1 2,9.4 2,12.1 C2,14.8 2,15.2 2.1,16.2 C2.1,17.3 2.3,18 2.6,18.6 C2.9,19.3 3.2,19.8 3.8,20.4 C4.4,21 4.9,21.3 5.6,21.6 C6.2,21.8 7,22 8,22.1 C8.9,22.1 9.3,22.1 12,22.1 C14.7,22.1 15.1,22.1 16.1,22 C17.2,22 17.9,21.8 18.5,21.5 C19.2,21.2 19.7,20.9 20.3,20.3 C20.9,19.7 21.2,19.2 21.5,18.5 C21.7,17.9 21.9,17.1 22,16.1 C22,15 22.1,14.7 22.1,12 C22.1,9.3 22.1,8.9 22,7.9 C22,6.8 21.8,6.1 21.5,5.5 C21.2,4.8 20.9,4.3 20.3,3.7 C19.7,3.1 19.2,2.8 18.5,2.5 C17.9,2.3 17.1,2.1 16.1,2 C15.1,2.2 14.7,2.1 12,2.1 M12,3.9 C14.7,3.9 15,3.9 16,4 C17,4 17.5,4.2 17.9,4.3 C18.4,4.5 18.7,4.7 19,5.1 C19.3,5.4 19.6,5.8 19.7,6.2 C19.9,6.6 20.1,7.1 20.1,8.1 C20.1,9.2 20.2,9.5 20.2,12.1 C20.2,14.8 20.2,15.1 20.1,16.1 C20.1,17.1 19.9,17.6 19.8,18 C19.6,18.5 19.4,18.8 19.1,19.1 C18.8,19.4 18.4,19.7 18,19.8 C17.5,20.1 17,20.2 16,20.3 C14.9,20.3 14.6,20.4 12,20.4 C9.4,20.4 9,20.4 8,20.3 C7,20.3 6.5,20.1 6.1,20 C5.6,19.8 5.3,19.6 5,19.3 C4.7,19 4.4,18.6 4.3,18.2 C4.2,17.8 4,17.3 4,16.3 C4,15.2 3.9,14.9 3.9,12.3 C3.9,9.6 3.9,9.3 4,8.3 C4,7.3 4.2,6.8 4.3,6.4 C4.4,5.8 4.6,5.4 5,5.1 C5.3,4.8 5.7,4.5 6.1,4.4 C6.5,4.2 7,4 8,4 C9,4 9.3,3.9 12,3.9 M12,15.5 C10.2,15.5 8.7,14 8.7,12.2 C8.7,10.4 10.2,8.9 12,8.9 C13.8,8.9 15.3,10.4 15.3,12.2 C15.3,14 13.8,15.5 12,15.5 M12,7 C9.2,7 6.9,9.3 6.9,12.1 C6.9,14.9 9.2,17.2 12,17.2 C14.8,17.2 17.1,14.9 17.1,12.1 C17.1,9.3 14.8,7 12,7 M18.5,6.8 C18.5,7.5 18,8 17.3,8 C16.6,8 16.1,7.5 16.1,6.8 C16.1,6.1 16.6,5.6 17.3,5.6 C18,5.6 18.5,6.1 18.5,6.8" id="path-1"></path>
    </defs>
    <g id="Page-1" stroke="none" stroke-width="1" fill="none" fill-rule="evenodd">
        <g id="Artboard" transform="translate(-854.000000, -2504.000000)">
            <g id="Footer" transform="translate(0.000000, 2268.000000)">
                <g id="social" transform="translate(0.000000, 208.000000)">
                    <g id="icons" transform="translate(556.000000, 18.000000)">
                        <g id="instagram" transform="translate(288.000000, 0.000000)">
                            <g id="Social-/-Social-Media-/-instagram" transform="translate(8.000000, 8.000000)">
                                <mask id="mask-2" fill="white">
                                    <use xlink:href="#path-1"></use>
                                </mask>
                                <use id="mask" fill="#2E3134" fill-rule="nonzero" xlink:href="#path-1"></use>
                                <g id="Fill-/-White" mask="url(#mask-2)" fill="#FFFFFF" fill-rule="nonzero">
                                    <polygon id="ui/color/white" points="0 0 24 0 24 24 0 24"></polygon>
                                </g>
                            </g>
                        </g>
                    </g>
                </g>
            </g>
        </g>
    </g>
</svg>