<?xml version="1.0" encoding="UTF-8"?>
<svg width="19px" height="15px" viewBox="0 0 19 15" version="1.1" xmlns="http://www.w3.org/2000/svg" xmlns:xlink="http://www.w3.org/1999/xlink">
    <!-- Generator: Sketch 61 (89581) - https://sketch.com -->
    <title>Social / Social Media / twitter</title>
    <desc>Created with Sketch.</desc>
    <defs>
        <path d="M22,6.8 C21.3,7.1 20.5,7.3 19.8,7.4 C20.6,6.9 21.2,6.2 21.5,5.3 C20.7,5.7 19.9,6 19,6.2 C18.3,5.4 17.3,5 16.1,5 C14,5 12.3,6.7 12.3,8.8 C12.3,9.1 12.3,9.4 12.4,9.7 C9.2,9.5 6.3,8 4.4,5.7 C4,6.3 3.8,6.9 3.8,7.6 C3.8,8.9 4.5,10.1 5.5,10.7 C4.9,10.7 4.3,10.5 3.7,10.3 C3.7,10.3 3.7,10.3 3.7,10.3 C3.7,12.1 5,13.7 6.8,14 C6.5,14.1 6.1,14.1 5.8,14.1 C5.6,14.1 5.3,14.1 5.1,14 C5.6,15.5 7,16.6 8.7,16.6 C7.4,17.6 5.7,18.2 3.9,18.2 C3.6,18.2 3.3,18.2 3,18.1 C4.7,19.4 6.8,20 9,20 C16.2,20 20.1,14.2 20.1,9.2 C20.1,9 20.1,8.9 20.1,8.7 C20.8,8.2 21.5,7.5 22,6.8" id="path-1"></path>
    </defs>
    <g id="Page-1" stroke="none" stroke-width="1" fill="none" fill-rule="evenodd">
        <g id="Artboard" transform="translate(-783.000000, -2507.000000)">
            <g id="Footer" transform="translate(0.000000, 2268.000000)">
                <g id="social" transform="translate(0.000000, 208.000000)">
                    <g id="icons" transform="translate(556.000000, 18.000000)">
                        <g id="twitter" transform="translate(216.000000, 0.000000)">
                            <g id="Social-/-Social-Media-/-twitter" transform="translate(8.000000, 8.000000)">
                                <mask id="mask-2" fill="white">
                                    <use xlink:href="#path-1"></use>
                                </mask>
                                <use id="mask" fill="#2E3134" fill-rule="nonzero" xlink:href="#path-1"></use>
                                <g id="Fill-/-White" mask="url(#mask-2)" fill="#FFFFFF" fill-rule="nonzero">
                                    <polygon id="ui/color/white" points="0 0 24 0 24 24 0 24"></polygon>
                                </g>
                            </g>
                        </g>
                    </g>
                </g>
            </g>
        </g>
    </g>
</svg>