<?xml version="1.0" encoding="UTF-8"?>
<svg width="20px" height="16px" viewBox="0 0 20 16" version="1.1" xmlns="http://www.w3.org/2000/svg" xmlns:xlink="http://www.w3.org/1999/xlink">
    <!-- Generator: Sketch 61 (89581) - https://sketch.com -->
    <title>Social / Social Media / youtube</title>
    <desc>Created with Sketch.</desc>
    <defs>
        <path d="M10,16.5 L10,7.5 L16,12 M20,4.4 C19.4,4.2 15.7,4 12,4 C8.3,4 4.6,4.2 4,4.4 C2.4,4.9 2,8.4 2,12 C2,15.6 2.4,19.1 4,19.6 C4.6,19.8 8.3,20 12,20 C15.7,20 19.4,19.8 20,19.6 C21.6,19.1 22,15.6 22,12 C22,8.4 21.6,4.9 20,4.4" id="path-1"></path>
    </defs>
    <g id="Page-1" stroke="none" stroke-width="1" fill="none" fill-rule="evenodd">
        <g id="Artboard" transform="translate(-566.000000, -2506.000000)">
            <g id="Footer" transform="translate(0.000000, 2268.000000)">
                <g id="social" transform="translate(0.000000, 208.000000)">
                    <g id="icons" transform="translate(556.000000, 18.000000)">
                        <g id="youtube">
                            <g id="Social-/-Social-Media-/-youtube" transform="translate(8.000000, 8.000000)">
                                <mask id="mask-2" fill="white">
                                    <use xlink:href="#path-1"></use>
                                </mask>
                                <use id="mask" fill="#2E3134" fill-rule="nonzero" xlink:href="#path-1"></use>
                                <g id="Fill-/-White" mask="url(#mask-2)" fill="#FFFFFF" fill-rule="nonzero">
                                    <polygon id="ui/color/white" points="0 0 24 0 24 24 0 24"></polygon>
                                </g>
                            </g>
                        </g>
                    </g>
                </g>
            </g>
        </g>
    </g>
</svg>