<svg xmlns="http://www.w3.org/2000/svg" viewBox="0 0 108 24">
  <defs/>
  <path fill="#2E3134" fill-rule="nonzero" d="M105.886567.14328358c.877612 0 1.57612.71641791 1.57612 1.57611941V22.2626866c0 .8776119-.716418 1.5940298-1.57612 1.5940298H1.5761194C.69850746 23.8567164 0 23.1402985 0 22.280597V1.71940299C0 .84179104.71641791.14328359 1.5761194.14328359H105.886567zM74.7761194 6.30447761h-7.5402985c-.4656716 0-.7164179.25074627-.7880597.71641791L64.9074627 17.8925373c-.0895523.4835821.1253731.7164179.5910448.7164179h3.080597c.4656716 0 .7164179-.2149253.7880597-.680597l1.1820895-8.57910447c.0716418-.48358209.3223881-.71641791.7880597-.71641791.4298508 0 .6268657.25074627.5910448.71641791l-1.3074627 9.24179107c-.0716418.5552239.0358209 1.0746268.3940299 1.4686567.3582089.3940298.8238806.5910448 1.3791045.5910448h1.7014925c.5014925 0 .7522388-.2507463.8238806-.680597L76.5313433 8.4c.0716418-.55522388-.0358209-1.02089552-.3761194-1.46865672-.358209-.42985074-.8238806-.62686567-1.3791045-.62686567zM34.2626866 4.33432836h-6.1611941l-.1943861.00729685c-.5114182.03891653-.9678029.23349917-1.3817333.58374792-.4656716.39402986-.7164179.91343284-.7880597 1.50447762l-1.3432835 9.47462685-.0123135.1119196c-.0246268.3938018.1764926.6044983.6033582.6044983h3.080597l.1216996-.0057593c.3880821-.0383507.6012312-.2677821.6663601-.6748377l.6626866-4.9074627.0239793-.1216457c.0947329-.3875439.3374861-.5947722.7282595-.5947722.4298508 0 .6268657.2328358.5910448.7164179l-.8238806 5.5701493-.0171488.1836251c-.0275168.4854738.0927707.9347828.4111786 1.2850316.358209.3940298.8238806.5910448 1.4149254.5910448h1.7014926l.1225338-.0057594c.3934647-.0383507.6362179-.267782.7013468-.6748376l1.6119403-11.5701493.0306089-.15909851c.0707642-.47117015-.0485194-.88866269-.3709075-1.29164776-.3582089-.39402985-.7880597-.62686567-1.3791044-.62686567zm47.5701492 1.9880597h-3.080597c-.4656716 0-.7164179.25074627-.7880597.71641791L76.4238806 17.9104478c-.0895522.4835821.1253731.7164179.5910448.7164179h3.080597c.4656716 0 .7164179-.2149254.7880597-.680597l.7522388-4.8537314c.0358209-.4835821.2865672-.7164179.7164179-.7164179.4298508 0 .6268657.2507463.5552239.7164179l-.4656717 3.5104478c-.0895522.5552239.0716418 1.0746268.4298508 1.4686567.3582089.3940298.8238806.5910448 1.3791045.5910448h1.7014925c.4656716 0 .7164179-.2507463.7880597-.7164179l.5910448-4.2268657c.0895522-.4835821-.1253732-.7164179-.5910448-.7164179h-.7880597c-.4656716 0-.6626866-.2507463-.5910448-.7164179h.0716418c.5910448 0 1.1104478-.197015 1.5761194-.5910448.4298508-.3940299.7164179-.877612.7880597-1.4686567l.4298508-3.20597018c.0716418-.42985074-.1253732-.66268656-.5552239-.69850746h-3.1164179c-.4656717 0-.7164179.25074627-.7880597.71641791l-.358209 2.29253731c-.0358209.4477612-.2865671.68059702-.7522388.68059702-.4656716 0-.6626865-.21492537-.5910448-.68059702l.358209-2.29253731c.0716418-.48358209-.1253731-.71641791-.5910448-.71641791zm11.6417911.01791045h-3.080597c-.4656717 0-.716418.25074627-.7880598.71641791L88.1014925 17.9283582c-.0895522.4835821.1253732.7164179.5910448.7164179h3.080597c.4656717 0 .7164179-.2507462.7880597-.7164179l1.5044776-10.90746268c.0895523-.42985074-.1074626-.66268656-.5910447-.68059701zm9.2776121-.05373135h-6.5552241c-.4656716 0-.7164179.25074627-.7880597.71641791L93.8686567 17.8746269c-.0895522.4835821.1253732.7164179.5910448.7164179h6.5552235c.465672 0 .716418-.2149254.78806-.680597l.161194-.9134329c.089552-.4477612-.125373-.680597-.591045-.680597h-2.0955221c-.4656716 0-.6626865-.2149254-.5910447-.680597l.3582089-2.561194c.0716418-.4477612.3223881-.680597.7880597-.680597h2.0955222c.465672 0 .716418-.2507463.78806-.716418l.125373-.9134328c.089552-.4835821-.125373-.7164179-.591045-.7164179h-2.095522c-.4298509 0-.6626867-.25074627-.5910449-.71641792.0716418-.48358209.3223881-.71641791.7880599-.71641791h2.095522c.465672 0 .716418-.21492537.78806-.68059701l.161194-.91343284c.071642-.42985074-.125373-.66268656-.644776-.73432836zm-50.0955226-.07164179h-3.080597c-.4656716 0-.7164179.25074627-.7880597.71641791l-1.2179104 8.57910452c-.0358209.4835821-.3223881.7164179-.7522389.7164179-.4656716 0-.6626865-.2149254-.5910447-.680597l.3582089-2.5611941c.0358209-.4835821-.161194-.7164179-.5910447-.7164179h-3.116418c-.4656716 0-.7164179.2507463-.7880597.7164179l-.5194029 3.5104478c-.0358209.5552239.0716417 1.0746269.4298507 1.4686567.358209.3940299.8238806.5910448 1.3791045.5910448h6.161194c.5552239 0 1.0746269-.1970149 1.5402985-.5910448.4298508-.3940298.7164179-.9134328.7880597-1.4686567l1.3432836-9.47462688c.0895522-.42985074-.1074627-.66268656-.5552239-.80597015zm5.8208955.08955224h-3.080597c-.4656716 0-.7164179.25074627-.7880597.71641791l-1.3432836 9.47462688c-.0358209.5552239.0716418 1.0746269.4298508 1.4686567.3582089.3940299.8238806.5910448 1.3791045.5910448h6.161194c.5552239 0 1.0746269-.1970149 1.5402985-.5910448.4298507-.3940298.7164179-.9134328.7880597-1.4686567l1.3432836-9.47462688c.0358209-.42985074-.161194-.66268656-.6268657-.71641791H61.2c-.4656716 0-.7164179.25074627-.7880597.71641791L59.1940299 15.6c-.0358209.4835821-.3223881.7164179-.7522389.7164179-.4656716 0-.6626865-.2507463-.5910447-.7164179l1.2179104-8.57910448c.0895523-.48358209-.1253731-.71641791-.5910448-.71641791zM23.8208955 4.37014925h-6.5731343c-.4656716 0-.7164179.25074627-.7880597.71641791L14.919403 15.958209c-.0895523.483582.1253731.7164179.5910448.7164179h6.5552238c.4656717 0 .716418-.2149254.7880597-.680597l.1611941-.9492538c.0895522-.4835821-.1253732-.7164179-.5910448-.7164179h-2.0955224c-.4656716 0-.6626866-.2149254-.5910448-.680597l.358209-2.561194c.0716418-.4477612.322388-.6805971.7880597-.6805971h2.0955224c.4656716 0 .7164179-.2507462.7880597-.71641786l.1253731-.91343284c.0895523-.48358209-.1253731-.71641791-.5910448-.71641791h-2.0955224c-.4656716 0-.6626865-.19701492-.6268656-.71641791.0716418-.48358209.322388-.71641791.7880597-.71641791h2.0955224c.4656716 0 .7164179-.19701492.7880597-.66268657l.161194-.91343283c.0895522-.42985075-.1074627-.68059702-.5910448-.68059702zm-9.241791.01791045H7.03880597c-.55522388 0-1.07462687.19701493-1.54029851.59104478-.46567164.39402985-.7522388.91343283-.82388059 1.46865671L3.5641791 14.5432836c-.07164179.5552239.0358209 1.0746268.39402986 1.4686567.30447761.3940298.7880597.5910448 1.37910447.5910448h6.16119407c.5552238 0 1.0746268-.197015 1.5402985-.5910448.4656716-.3940299.7522388-.9134328.8238806-1.4686567l.7880597-5.80298509c.0895522-.48358209-.1253732-.71641791-.5910448-.71641791h-3.8686567c-.46567167 0-.71641793.25074627-.78805973.71641791l-.12537313.91343283c-.08955224.32238806.16119403.55522386.59104478.71641796.42985078.1253731.62686568.3582089.59104478.680597l-.3940299 2.561194c-.07164175.4835821-.32238802.7164179-.78805966.7164179h-.55522388c-.46567164 0-.66268657-.2507463-.59104478-.7164179l.91343284-6.21492537c.07164179-.48358209.32238806-.71641792.7880597-.71641792h4.38805968c.4656717 0 .7164179-.21492537.7880597-.68059701l.1253732-.94925373c.0716417-.42985075-.1253732-.68059702-.5552239-.66268657zm26.8656716-.08955224h-3.080597c-.4656716 0-.7164179.25074627-.7880597.71641791L36.0358209 15.8865672c-.0895522.4835821.1253731.7164179.5910448.7164179h3.080597c.5014925 0 .7522388-.2149254.8238806-.680597l1.1820895-8.57910452c.0358209-.48358209.3223881-.71641791.7522388-.71641791.4656717 0 .6626866.25074627.5910448.71641791l-.322388 2.29253732c-.0358209.4477612.161194.680597.5910447.680597h3.1164179c.4656717 0 .716418-.2507463.7880597-.680597l.4656717-3.20597015c.0716418-.55522388-.1253731-1.07462687-.4119403-1.50447762-.3044776-.42985074-.7880597-.62686567-1.3791045-.62686567h-3.080597c-.4656716 0-.7164179.25074627-.7880597.71641791.0716418-.48358209-.1253731-.71641791-.5910448-.71641791zM30.8597015 6.64477612c.4656716 0 .680597.23283582.5910448.68059701-.0358209.48358209-.3223881.68059702-.7880597.68059702-.4656717 0-.680597-.23283582-.5910448-.68059702.0716418-.46567164.3223881-.68059701.7880597-.68059701z" opacity=".80350167"/>
</svg>
