<?xml version="1.0" encoding="UTF-8"?>
<svg width="20px" height="13px" viewBox="0 0 20 13" version="1.1" xmlns="http://www.w3.org/2000/svg" xmlns:xlink="http://www.w3.org/1999/xlink">
    <!-- Generator: Sketch 61 (89581) - https://sketch.com -->
    <title>icn_playlist copy 3</title>
    <desc>Created with Sketch.</desc>
    <defs>
        <path d="M2,7 L19,7 L19,6 L2,6 L2,7 Z M2,11 L19,11 L19,10 L2,10 L2,11 Z M17,19 L22,16 L17,13 L17,19 Z M18,14.766 L20.057,16 L18,17.233 L18,14.766 Z M2,15 L15,15 L15,13.999 L2,13.999 L2,15 Z" id="path-1"></path>
    </defs>
    <g id="Page-1" stroke="none" stroke-width="1" fill="none" fill-rule="evenodd">
        <g id="Artboard" transform="translate(-642.000000, -1307.000000)">
            <g id="desktop_library" transform="translate(108.000000, 1202.000000)">
                <g id="row_1">
                    <g id="2" transform="translate(312.000000, 0.000000)">
                        <g id="img">
                            <g id="Group-3" transform="translate(176.000000, 0.000000)">
                                <g id="Group-7" transform="translate(27.000000, 41.000000)">
                                    <g id="Icon-/-Video-/-icn_playlist" transform="translate(17.000000, 58.000000)">
                                        <g>
                                            <rect id="Rectangle-1-Copy-265" x="0" y="0" width="24" height="24"></rect>
                                            <mask id="mask-2" fill="white">
                                                <use xlink:href="#path-1"></use>
                                            </mask>
                                            <use id="Page-1" fill="#231F20" xlink:href="#path-1"></use>
                                            <g id="white" mask="url(#mask-2)" fill="#FFFFFF">
                                                <rect id="Rectangle-4" x="0" y="0" width="24" height="24"></rect>
                                            </g>
                                        </g>
                                    </g>
                                </g>
                            </g>
                        </g>
                    </g>
                </g>
            </g>
        </g>
    </g>
</svg>