<svg xmlns="http://www.w3.org/2000/svg" xmlns:xlink="http://www.w3.org/1999/xlink" viewBox="0 0 134 24">
  <defs>
    <path id="a" d="M.1808 1.056h16v18.1008h-16z"/>
  </defs>
  <defs>
    <path id="e" d="M.1808 0h16v22.3568h-16z"/>
    <path id="g" d="M.1808 1.056h17.6v18.1008h-17.6z"/>
    <path id="i" d="M.1808 0h17.6v22.3568h-17.6z"/>
    <path id="k" d="M.1808 0h6.4v22.3568h-6.4z"/>
    <path id="m" d="M.1808 1.056h16.8944v18.1008H.1808z"/>
    <use xlink:href="#a"/>
    <use id="c" xlink:href="#a"/>
  </defs>
  <g fill="none" fill-rule="evenodd" opacity=".803672">
    <path fill="#2E3134" fill-rule="nonzero" d="M17.4688.544l-4.576 12.1184L8.2896.544H.4192v21.9632h5.664v-14.52l5.5616 14.52h2.4992l5.5312-14.52v14.52h5.664V.544z"/>
    <g transform="translate(26.0192 3.744)">
      <mask id="b" fill="#fff">
        <use xlink:href="#a"/>
      </mask>
      <path fill="#2E3134" fill-rule="nonzero" d="M10.8064 14.6816v-1.4192c-.5248-.7568-1.712-1.12-2.8256-1.12-1.3184 0-2.5376.5952-2.5376 1.8448s1.2192 1.8448 2.5376 1.8448c1.1136 0 2.3008-.3952 2.8256-1.152v.0016zm0 4.08v-1.5808c-.9872 1.1824-2.8944 1.976-4.9376 1.976-2.4368 0-5.4624-1.6816-5.4624-5.2384 0-3.8496 3.024-5.1312 5.4624-5.1312 2.112 0 3.9872.688 4.9376 1.8752V9.0816c0-1.3824-1.1808-2.3376-3.2256-2.3376-1.5808 0-3.1616.624-4.4432 1.712L1.2624 4.9312c2.0432-1.744 4.7744-2.4688 7.2064-2.4688 3.8192 0 7.4128 1.4192 7.4128 6.3568v9.944h-5.0752v-.0016z" mask="url(#b)"/>
    </g>
    <g transform="translate(42.0192 3.744)">
      <mask id="d" fill="#fff">
        <use xlink:href="#c"/>
      </mask>
      <path fill="#2E3134" fill-rule="nonzero" d="M.568 16.688l2.1072-3.6192c1.1872 1.0496 3.7184 2.1376 5.6 2.1376 1.512 0 2.1376-.432 2.1376-1.12 0-1.9744-9.2496.064-9.2496-6.3872 0-2.8 2.4368-5.2368 6.8112-5.2368 2.7008 0 4.9376.856 6.6512 2.1056L12.688 8.1632c-.9568-.9264-2.768-1.7504-4.6752-1.7504-1.1872 0-1.976.4624-1.976 1.088 0 1.744 9.2128-.064 9.2128 6.456 0 3.024-2.6624 5.2-7.2064 5.2-2.8624 0-5.792-.9568-7.4752-2.4688" mask="url(#d)"/>
    </g>
    <g transform="translate(58.0192 .544)">
      <mask id="f" fill="#fff">
        <use xlink:href="#e"/>
      </mask>
      <path fill="#2E3134" fill-rule="nonzero" d="M11.0064 21.9632V12.704c0-1.936-1.0192-2.5616-2.6384-2.5616-1.48 0-2.4672.8192-3.056 1.544v10.2752H.2368V0H5.312v8c.9504-1.12 2.832-2.336 5.4944-2.336 3.6256 0 5.2688 2.0416 5.2688 4.9728v11.3264h-5.0688z" mask="url(#f)"/>
    </g>
    <g transform="translate(74.0192 3.744)">
      <mask id="h" fill="#fff">
        <use xlink:href="#g"/>
      </mask>
      <path fill="#2E3134" fill-rule="nonzero" d="M11.5008 14.6816v-1.4192c-.5264-.7568-1.712-1.12-2.832-1.12-1.3184 0-2.5376.5952-2.5376 1.8448s1.2192 1.8448 2.5376 1.8448c1.12 0 2.3056-.3952 2.832-1.152v.0016zm0 4.08v-1.5808c-.9888 1.1824-2.9008 1.976-4.9376 1.976-2.4384 0-5.4688-1.6816-5.4688-5.2384 0-3.8496 3.0304-5.1312 5.4688-5.1312 2.1056 0 3.9808.688 4.9376 1.8752V9.0816c0-1.3824-1.1888-2.3376-3.2256-2.3376-1.5808 0-3.1632.624-4.4496 1.712L1.9504 4.9312c2.0432-1.744 4.7744-2.4688 7.2128-2.4688 3.8176 0 7.4048 1.4192 7.4048 6.3568v9.944h-5.0672v-.0016z" mask="url(#h)"/>
    </g>
    <g transform="translate(91.6192 .544)">
      <mask id="j" fill="#fff">
        <use xlink:href="#i"/>
      </mask>
      <path fill="#2E3134" fill-rule="nonzero" d="M8.712 17.8816c2.0064 0 3.5248-1.488 3.5248-3.888 0-2.368-1.5184-3.856-3.5248-3.856-1.088 0-2.4.5936-3.0304 1.4496v4.8752c.6304.856 1.944 1.4192 3.0304 1.4192zm-8.0992 4.08V0h5.0688v7.936c1.12874557-1.45277601 2.87239085-2.29351499 4.712-2.272 3.9808 0 7.0128 3.1296 7.0128 8.3296 0 5.4-3.0944 8.3632-7.0128 8.3632-1.7808 0-3.3936-.7248-4.712-2.2384v1.8448H.6128v-.0016z" mask="url(#j)"/>
    </g>
    <g transform="translate(109.2192 .544)">
      <mask id="l" fill="#fff">
        <use xlink:href="#k"/>
      </mask>
      <path fill="#2E3134" fill-rule="nonzero" d="M.8256 0h5.0688v21.9632H.8256z" mask="url(#l)"/>
    </g>
    <g transform="translate(115.6192 3.744)">
      <mask id="n" fill="#fff">
        <use xlink:href="#m"/>
      </mask>
      <path fill="#2E3134" fill-rule="nonzero" d="M8.944 6.544c-2.208 0-3.0624 1.3184-3.264 2.4688h6.5568c-.136-1.12-.9552-2.4688-3.2928-2.4688M.512 10.7936c0-4.6064 3.456-8.3312 8.432-8.3312 4.7056 0 8.1312 3.456 8.1312 8.856v1.1568H5.7504c.3616 1.4128 1.68 2.6 3.9808 2.6 1.12 0 2.9632-.4944 3.888-1.3504l2.2 3.3248c-1.576 1.4128-4.2128 2.1072-6.6448 2.1072-4.9056 0-8.6624-3.1936-8.6624-8.3632" mask="url(#n)"/>
    </g>
  </g>
</svg>
