<svg xmlns="http://www.w3.org/2000/svg" viewBox="0 0 112 24">
  <defs/>
  <g fill="#2E3134" fill-rule="nonzero" opacity=".796817">
    <path d="M22.0243902 0h23.2682927v24H22.0243902V0zm5.9590244 3.60878049c-.0117073.98341463-.0117073 1.96390244 0 2.94731707 1.337561.00878049 2.675122.00292683 4.012683.00292683-.0058537 3.62634151-.0058537 7.25560971 0 10.88195121-1.337561 0-2.675122-.0058536-4.012683.0029268-.0117073.9834147-.0117073 1.9639025.0029269 2.9473171a2442.82524683 2442.82524683 0 0011.3443902 0c.0146342-.9804878.0117073-1.9639024.0058537-2.9443902-1.3404878-.0117073-2.6780488-.0058537-4.0156098-.0058537.0058537-3.6263415.0058537-7.2556097 0-10.88195121 1.337561 0 2.675122.00585366 4.0126829-.00292683.0117074-.98341463.0117074-1.96682927-.0029268-2.94731707C35.5492683 3.6 31.7678049 3.6 27.9834146 3.60878049zM68.7804878 0h23.3414634v24H68.7804878V0zm4.1970732 3.61170732c-.0117073.97756097-.0117073 1.95804878-.0058537 2.93560975.7463415.01463415 1.4926829.01463415 2.2390244.00878049a1350.08833296 1350.08833296 0 010 10.88780484c-.7463415-.0058536-1.4897561-.0058536-2.2360976.0029269-.0087804.9804878-.0117073 1.9609756.0029269 2.9414634 4.7063414.0146341 9.4097561.0146341 14.1160975 0 .0234147-1.9404878.0087805-3.8809756.0087805-5.8214634-1.0214634-.0087805-2.0429268-.0087805-3.0643902.0029268a469.4501783 469.4501783 0 000 2.8712195c-1.8614634.0029268-3.7229268-.0117073-5.5843903.0087805-.0292683-1.4370732-.0087805-2.8770732-.0146341-4.3141463h4.3902439v-2.8009757h-4.3902439c0-1.25853654-.0029268-2.51707312.0029268-3.77560971 1.8146342.00292683 3.6263415.00292683 5.4409756 0-.0058536.83707317-.0058536 1.67414634-.0029268 2.51414634h3.0117073c-.0029268-1.8204878.0029268-3.64097561-.0029268-5.46146341-4.6390244-.01463415-9.275122-.01463415-13.9112195 0zM.26634146 3.76682927c1.07121952.00585366 2.14243903 0 3.21365854.00292683.67902439 4.44 1.42536585 8.8741463 2.21268293 13.2965854.13170731-.3307317.24878048-.6643903.32780487-1.012683.76682927-3.7521951 1.5892683-7.49560972 2.37365854-11.24780484.09658537-.38634146.20780488-.96878049.6995122-1.0097561.86634146-.05560976 1.73853656-.05268293 2.60487806 0 .7082927.32780488.6204878 1.2702439.8136585 1.91707317.8487805 3.78439025 1.5014634 7.62439027 2.4760976 11.37365857.8663414-4.4195122 1.4956097-8.88292686 2.28-13.3170732.9834146 0 1.9668293.00292683 2.9531707-.00292683-1.0917073 5.08390244-2.0546341 10.20000003-3.0878049 15.29560973-.102439.4039025-.1229268.892683-.5239024 1.1297561-1.115122.155122-2.262439.1434147-3.3804878.0087805-.3921951-.2429268-.4156098-.7346341-.5268293-1.1326829-.8136585-3.7463415-1.5365853-7.5131707-2.4117073-11.2478049-.1521951.2897561-.2517073.60292683-.30731707.92487805-.70243902 3.48000005-1.46926829 6.94829265-2.17463414 10.42829265-.10243903.4243903-.23707317 1.0858537-.79902439 1.0682927-1.03317073.0702439-2.08390244.1112195-3.10829269-.0526829-.56780487-.3921951-.45365853-1.1648781-.63804878-1.7502439C2.25365854 13.5512195 1.31414634 8.64585366.26634146 3.76682927zM50.5990244 3.7697561c3.2282927 0 6.4595122-.00292683 9.6878049 0 1.0009756 0 2.1951219.12878049 2.8331707 1.00682927.7990244 1.05658536.7697561 2.44097561.7814634 3.69951219-.0029268 1.07707317-.0526829 2.25658534-.7492683 3.14048784-.48.6439024-1.3287805.6760975-1.9902439 1.027317.8897561.257561 2.0312195.4887805 2.3239025 1.5219513.5678048 1.9726829.2078048 4.0536585.5004878 6.067317-1.0331708-.0029268-2.0634147-.0029268-3.0965854-.0029268-.1112195-1.7765854-.2634146-3.5502439-.3453659-5.3297561.0146342-.7082927-.7521951-1.1678049-1.3960975-1.1063415-1.7648781-.0117073-3.5297561.0029269-5.2946342-.0029268v6.4390244h-3.2546341V3.7697561zm3.2546341 2.70439024v4.76780486c1.9463415-.0263414 3.8985366.0585366 5.8419513-.0409756 1.044878-.0614634 1.0595122-1.31707316 1.1004878-2.1014634-.0321952-.86341464.1287804-2.01073171-.6760976-2.58146342-2.0839024-.10829268-4.1765854-.01170732-6.2663415-.04390244zM97.4282927 3.7697561c2.8419513.01170731 5.6868293-.02634147 8.5287803.0204878 1.589268.05853659 3.398049.4302439 4.343415 1.84390244 1.191219 1.90243903 1.003902 4.23219512 1.214634 6.37463416-.207805 2.1395122-.029268 4.4604878-1.214634 6.3570732-1.01561 1.5102439-2.979512 1.8234146-4.665366 1.8556097-2.736585.0204878-5.470244.0029268-8.2068293.0087805V3.7697561zm3.2546343 2.70439024V17.5258537c1.665366-.0029269 3.330732.0029268 4.999024.0029268.799025.0146341 1.767805-.1960976 2.142439-.9921951.559025-1.2321952.421464-2.6195122.468293-3.9336586-.061463-1.644878.172683-3.35999997-.380488-4.94048778-.24878-.80780487-1.147317-1.19121951-1.934634-1.18243902-1.764878-.01756098-3.529756.00292683-5.294634-.00585366z"/>
  </g>
</svg>
